<svg width="321" height="35" viewBox="0 0 321 35" fill="none" xmlns="http://www.w3.org/2000/svg">
<path d="M11.7779 34.5C9.6446 34.5 7.77793 34.3 6.17793 33.9C4.61126 33.4667 3.0446 32.85 1.47793 32.05L0.97793 23.7H1.87793L4.92793 29.45C6.9946 31.15 9.16126 32 11.4279 32C13.2946 32 14.7946 31.55 15.9279 30.65C17.0613 29.7167 17.6279 28.4 17.6279 26.7C17.6279 25.4333 17.3279 24.4167 16.7279 23.65C16.1613 22.85 15.2779 22.1333 14.0779 21.5C12.8779 20.8333 11.3113 20.0667 9.37793 19.2C7.0446 18.0667 5.2446 16.85 3.97793 15.55C2.71126 14.2167 2.07793 12.4333 2.07793 10.2C2.07793 8.93333 2.3946 7.71667 3.02793 6.55C3.66126 5.38333 4.4946 4.35 5.52793 3.45C6.5946 2.55 7.77793 1.83333 9.07793 1.3C10.4113 0.766665 11.7779 0.499999 13.1779 0.499999C14.8446 0.499999 16.3946 0.699999 17.8279 1.1C19.2946 1.46667 20.6946 2 22.0279 2.7L22.5279 10.7H21.6779L18.6279 5.2C17.6613 4.46666 16.7613 3.91666 15.9279 3.55C15.0946 3.18333 14.1446 3 13.0779 3C11.6779 3 10.5113 3.46667 9.57793 4.4C8.67793 5.33333 8.22793 6.51667 8.22793 7.95C8.22793 9.45 8.72793 10.6667 9.72793 11.6C10.7279 12.5 12.3946 13.5 14.7279 14.6C16.7613 15.5333 18.4279 16.45 19.7279 17.35C21.0279 18.25 21.9946 19.2667 22.6279 20.4C23.2613 21.5333 23.5779 22.9333 23.5779 24.6C23.5779 26.2 23.2279 27.6167 22.5279 28.85C21.8613 30.05 20.9446 31.0833 19.7779 31.95C18.6446 32.7833 17.3779 33.4167 15.9779 33.85C14.5779 34.2833 13.1779 34.5 11.7779 34.5ZM43.7123 34.5C40.879 34.5 38.3456 33.8833 36.1123 32.65C33.9123 31.3833 32.179 29.6667 30.9123 27.5C29.6456 25.3 29.0123 22.8 29.0123 20C29.0123 17.2 29.6456 14.7 30.9123 12.5C32.179 10.3 33.9123 8.58333 36.1123 7.35C38.3456 6.08333 40.879 5.45 43.7123 5.45C46.579 5.45 49.1123 6.08333 51.3123 7.35C53.5456 8.58333 55.2956 10.3 56.5623 12.5C57.8623 14.7 58.5123 17.2 58.5123 20C58.5123 22.8 57.8623 25.3 56.5623 27.5C55.2956 29.6667 53.5456 31.3833 51.3123 32.65C49.1123 33.8833 46.579 34.5 43.7123 34.5ZM44.4623 31.95C46.8956 31.95 48.8123 30.9667 50.2123 29C51.6123 27 52.3123 24.4167 52.3123 21.25C52.3123 18.6167 51.9123 16.3167 51.1123 14.35C50.3456 12.35 49.2623 10.7833 47.8623 9.65C46.4956 8.51667 44.929 7.95 43.1623 7.95C40.729 7.95 38.7956 8.95 37.3623 10.95C35.929 12.9167 35.2123 15.4667 35.2123 18.6C35.2123 21.2 35.5956 23.5167 36.3623 25.55C37.1623 27.55 38.2456 29.1167 39.6123 30.25C41.0123 31.3833 42.629 31.95 44.4623 31.95ZM79.9221 34.5C77.5221 34.5 75.3721 34.1167 73.4721 33.35C71.6054 32.5833 70.1221 31.3333 69.0221 29.6C67.9554 27.8667 67.4221 25.5333 67.4221 22.6V8.45L63.7221 6.8V6H77.1721V6.8L73.4721 8.45V22.5C73.4721 24.7667 73.8054 26.55 74.4721 27.85C75.1387 29.15 76.0554 30.0833 77.2221 30.65C78.4221 31.2167 79.8221 31.5 81.4221 31.5C82.8221 31.5 84.1054 31.2333 85.2721 30.7C86.4387 30.1667 87.3721 29.3333 88.0721 28.2C88.7721 27.0333 89.1221 25.55 89.1221 23.75V8.35L84.9721 6.8V6H95.7721V6.8L92.1221 8.4V22.9C92.1221 26.9667 91.0221 29.9167 88.8221 31.75C86.6221 33.5833 83.6554 34.5 79.9221 34.5ZM101.027 34V33.2L104.727 31.55V8.45L101.027 6.8V6H114.627C117.693 6 120.11 6.61667 121.877 7.85C123.643 9.08333 124.527 10.7667 124.527 12.9C124.527 16.0333 122.627 18.2833 118.827 19.65L126.577 31.65L129.827 33.2V34H120.827L113.227 21.25H110.727V31.5L113.977 33.2V34H101.027ZM112.627 8.4H110.727V18.85H112.827C114.627 18.85 115.993 18.3833 116.927 17.45C117.86 16.4833 118.327 15.1833 118.327 13.55C118.327 10.1167 116.427 8.4 112.627 8.4ZM147.635 34.5C144.635 34.5 141.968 33.9 139.635 32.7C137.335 31.5 135.518 29.8667 134.185 27.8C132.885 25.7 132.235 23.3167 132.235 20.65C132.235 18.4167 132.668 16.3667 133.535 14.5C134.402 12.6333 135.585 11.0333 137.085 9.7C138.618 8.33333 140.352 7.28333 142.285 6.55C144.218 5.81666 146.235 5.45 148.335 5.45C149.802 5.45 151.052 5.55 152.085 5.75C153.118 5.91667 154.035 6.16667 154.835 6.5C155.635 6.8 156.435 7.15 157.235 7.55L157.585 14.95H156.735L153.285 9.4C152.552 8.86667 151.802 8.5 151.035 8.3C150.302 8.1 149.452 8 148.485 8C146.552 8 144.818 8.51666 143.285 9.55C141.785 10.5833 140.585 12 139.685 13.8C138.818 15.6 138.385 17.6833 138.385 20.05C138.385 23.8167 139.302 26.75 141.135 28.85C143.002 30.9167 145.452 31.95 148.485 31.95C149.418 31.95 150.268 31.8833 151.035 31.75C151.835 31.5833 152.585 31.3167 153.285 30.95L157.185 25.4H157.985L157.485 32.3C156.318 32.9667 154.918 33.5 153.285 33.9C151.652 34.3 149.768 34.5 147.635 34.5ZM164.552 34V33.2L168.202 31.55V8.45L164.552 6.8V6H187.552V13.35H186.752L183.852 8.55H174.252V18.3H181.152L183.152 14.8H183.902V24.2H183.152L181.152 20.7H174.252V31.45H184.952L188.002 25.45H188.802V34H164.552ZM211.687 34.5C208.221 34.5 205.204 33.8 202.637 32.4C200.104 31 198.137 29.0833 196.737 26.65C195.337 24.1833 194.637 21.4 194.637 18.3C194.637 15.8667 195.121 13.5833 196.087 11.45C197.054 9.28333 198.371 7.38333 200.037 5.75C201.704 4.11667 203.604 2.83333 205.737 1.9C207.871 0.966666 210.121 0.499999 212.487 0.499999C214.187 0.499999 215.621 0.616665 216.787 0.849998C217.987 1.05 219.037 1.33333 219.937 1.7C220.871 2.03333 221.804 2.43333 222.737 2.9L223.187 12H222.287L218.287 5C217.254 4.3 216.321 3.8 215.487 3.5C214.654 3.16667 213.687 3 212.587 3C210.421 3 208.471 3.6 206.737 4.8C205.004 6 203.637 7.68333 202.637 9.85C201.637 12.0167 201.137 14.5167 201.137 17.35C201.137 20.3833 201.621 22.9833 202.587 25.15C203.554 27.3167 204.854 28.9833 206.487 30.15C208.154 31.3167 210.004 31.9 212.037 31.9C213.537 31.9 214.821 31.7 215.887 31.3C216.987 30.9 218.004 30.4167 218.937 29.85L222.787 23.7H223.637L222.987 31.95C221.587 32.7167 219.987 33.3333 218.187 33.8C216.421 34.2667 214.254 34.5 211.687 34.5ZM230.177 34V33.2L233.877 31.55V8.45L230.177 6.8V6H243.777C246.844 6 249.26 6.61667 251.027 7.85C252.794 9.08333 253.677 10.7667 253.677 12.9C253.677 16.0333 251.777 18.2833 247.977 19.65L255.727 31.65L258.977 33.2V34H249.977L242.377 21.25H239.877V31.5L243.127 33.2V34H230.177ZM241.777 8.4H239.877V18.85H241.977C243.777 18.85 245.144 18.3833 246.077 17.45C247.01 16.4833 247.477 15.1833 247.477 13.55C247.477 10.1167 245.577 8.4 241.777 8.4ZM261.281 34V33.2L264.931 31.55V8.45L261.281 6.8V6H284.281V13.35H283.481L280.581 8.55H270.981V18.3H277.881L279.881 14.8H280.631V24.2H279.881L277.881 20.7H270.981V31.45H281.681L284.731 25.45H285.531V34H261.281ZM291.066 34V33.2L294.766 31.55V8.45L291.066 6.8V6H304.916C308.282 6 311.149 6.55 313.516 7.65C315.916 8.71667 317.732 10.2167 318.966 12.15C320.199 14.05 320.816 16.25 320.816 18.75C320.816 21.7833 320.149 24.45 318.816 26.75C317.482 29.0167 315.599 30.8 313.166 32.1C310.766 33.3667 307.916 34 304.616 34H291.066ZM303.266 8.55H300.816V31.45H303.666C307.199 31.45 309.899 30.4167 311.766 28.35C313.632 26.25 314.566 23.4333 314.566 19.9C314.566 16.2333 313.599 13.4333 311.666 11.5C309.766 9.53333 306.966 8.55 303.266 8.55Z" fill="white"/>
</svg>
