<svg width="350" height="350" viewBox="0 0 350 350" fill="none" xmlns="http://www.w3.org/2000/svg">
<path d="M175 348.241C270.678 348.241 348.241 270.678 348.241 175C348.241 79.3216 270.678 1.759 175 1.759C79.3216 1.759 1.759 79.3216 1.759 175C1.759 270.678 79.3216 348.241 175 348.241Z" fill="black"/>
<path d="M175 30.7407C163.657 30.7407 152.353 32.0786 141.323 34.7266L175 175V30.7407Z" fill="white"/>
<path d="M259.793 58.2918C250.617 51.6244 240.685 46.0627 230.206 41.7218L175 175L259.793 58.2918Z" fill="white"/>
<path d="M312.199 130.421C308.693 119.633 303.928 109.296 298.001 99.6247L175 175L312.199 130.421Z" fill="white"/>
<path d="M312.199 219.579C315.704 208.791 317.925 197.627 318.815 186.318L175 175L312.199 219.579Z" fill="white"/>
<path d="M259.793 291.708C268.97 285.041 277.329 277.314 284.696 268.689L175 175L259.793 291.708Z" fill="white"/>
<path d="M175 319.259C186.343 319.259 197.647 317.921 208.677 315.273L175 175V319.259Z" fill="white"/>
<path d="M90.2065 291.708C99.3834 298.376 109.315 303.937 119.794 308.278L175 175L90.2065 291.708Z" fill="white"/>
<path d="M37.8013 219.579C41.3065 230.367 46.072 240.704 51.9988 250.375L175 175L37.8013 219.579Z" fill="white"/>
<path d="M37.8013 130.421C34.2961 141.209 32.0754 152.373 31.1855 163.682L175 175L37.8013 130.421Z" fill="white"/>
<path d="M90.2065 58.2918C81.0297 64.9592 72.6712 72.6857 65.3044 81.3111L175 175L90.2065 58.2918Z" fill="white"/>
<path d="M124.678 20.1236C112.5 24.0805 100.831 29.4599 89.9128 36.1504L175 175L124.678 20.1236Z" fill="white"/>
<path d="M225.322 20.1236C213.144 16.1667 200.542 13.66 187.777 12.6553L175 175L225.322 20.1236Z" fill="white"/>
<path d="M306.746 79.2811C299.219 68.9218 290.497 59.4864 280.76 51.1704L175 175L306.746 79.2811Z" fill="white"/>
<path d="M337.847 175C337.847 162.195 336.336 149.435 333.347 136.984L175 175H337.847Z" fill="white"/>
<path d="M306.746 270.719C314.272 260.36 320.551 249.149 325.451 237.319L175 175L306.746 270.719Z" fill="white"/>
<path d="M225.322 329.876C237.5 325.92 249.169 320.54 260.087 313.85L175 175L225.322 329.876Z" fill="white"/>
<path d="M124.678 329.876C136.856 333.833 149.458 336.34 162.223 337.345L175 175L124.678 329.876Z" fill="white"/>
<path d="M43.2543 270.719C50.7807 281.078 59.5027 290.514 69.2395 298.83L175 175L43.2543 270.719Z" fill="white"/>
<path d="M12.1533 175C12.1533 187.805 13.6636 200.565 16.6528 213.016L175 175H12.1533Z" fill="white"/>
<path d="M43.2542 79.2811C35.7278 89.6404 29.4494 100.851 24.5493 112.681L175 175L43.2542 79.2811Z" fill="white"/>
<path d="M175 65.6344C166.4 65.6344 157.831 66.6486 149.469 68.6561L175 175V65.6344Z" fill="#454545"/>
<path d="M239.284 86.5213C232.326 81.4667 224.797 77.2502 216.852 73.9593L175 175L239.284 86.5213Z" fill="#454545"/>
<path d="M279.013 141.204C276.356 133.026 272.743 125.189 268.25 117.857L175 175L279.013 141.204Z" fill="#454545"/>
<path d="M279.013 208.796C281.67 200.617 283.354 192.154 284.029 183.581L175 175L279.013 208.796Z" fill="#454545"/>
<path d="M239.284 263.479C246.241 258.424 252.577 252.566 258.162 246.027L175 175L239.284 263.479Z" fill="#454545"/>
<path d="M175 284.366C183.6 284.366 192.169 283.351 200.531 281.344L175 175V284.366Z" fill="#454545"/>
<path d="M110.716 263.479C117.674 268.533 125.203 272.75 133.148 276.041L175 175L110.716 263.479Z" fill="#454545"/>
<path d="M70.9871 208.796C73.6445 216.974 77.2572 224.811 81.7505 232.143L175 175L70.9871 208.796Z" fill="#454545"/>
<path d="M70.9871 141.204C68.3297 149.383 66.6462 157.846 65.9715 166.419L175 175L70.9871 141.204Z" fill="#454545"/>
<path d="M110.716 86.5213C103.759 91.576 97.4226 97.4336 91.8377 103.973L175 175L110.716 86.5213Z" fill="#454545"/>
<path d="M136.85 57.5853C127.617 60.5851 118.771 64.6633 110.494 69.7355L175 175L136.85 57.5853Z" fill="#454545"/>
<path d="M213.15 57.5853C203.918 54.5855 194.364 52.6851 184.686 51.9234L175 175L213.15 57.5853Z" fill="#454545"/>
<path d="M274.879 102.434C269.173 94.5802 262.561 87.427 255.179 81.1225L175 175L274.879 102.434Z" fill="#454545"/>
<path d="M298.457 175C298.457 165.292 297.312 155.619 295.046 146.18L175 175H298.457Z" fill="#454545"/>
<path d="M274.879 247.566C280.585 239.713 285.345 231.214 289.06 222.245L175 175L274.879 247.566Z" fill="#454545"/>
<path d="M213.15 292.415C222.383 289.415 231.229 285.337 239.506 280.264L175 175L213.15 292.415Z" fill="#454545"/>
<path d="M136.85 292.415C146.082 295.414 155.636 297.315 165.314 298.077L175 175L136.85 292.415Z" fill="#454545"/>
<path d="M75.1211 247.566C80.827 255.42 87.4394 262.573 94.821 268.878L175 175L75.1211 247.566Z" fill="#454545"/>
<path d="M51.5429 175C51.5429 184.708 52.6878 194.381 54.954 203.82L175 175H51.5429Z" fill="#454545"/>
<path d="M75.1211 102.434C69.4152 110.287 64.6554 118.786 60.9405 127.755L175 175L75.1211 102.434Z" fill="#454545"/>
<path d="M175 90.9324C168.39 90.9324 161.802 91.7121 155.375 93.2552L175 175V90.9324Z" fill="#676767"/>
<path d="M224.414 106.988C219.066 103.102 213.278 99.8614 207.171 97.3317L175 175L224.414 106.988Z" fill="#676767"/>
<path d="M254.953 149.022C252.91 142.735 250.133 136.711 246.679 131.075L175 175L254.953 149.022Z" fill="#676767"/>
<path d="M254.953 200.978C256.996 194.692 258.29 188.186 258.808 181.596L175 175L254.953 200.978Z" fill="#676767"/>
<path d="M224.414 243.012C229.762 239.127 234.632 234.624 238.925 229.598L175 175L224.414 243.012Z" fill="#676767"/>
<path d="M175 259.068C181.61 259.068 188.198 258.288 194.625 256.745L175 175V259.068Z" fill="#676767"/>
<path d="M125.586 243.012C130.934 246.898 136.722 250.139 142.829 252.668L175 175L125.586 243.012Z" fill="#676767"/>
<path d="M95.047 200.978C97.0897 207.265 99.8668 213.289 103.321 218.925L175 175L95.047 200.978Z" fill="#676767"/>
<path d="M95.047 149.022C93.0043 155.308 91.7102 161.814 91.1916 168.404L175 175L95.047 149.022Z" fill="#676767"/>
<path d="M125.586 106.988C120.238 110.873 115.368 115.376 111.075 120.402L175 175L125.586 106.988Z" fill="#676767"/>
<path d="M149.022 95.047C142.735 97.0897 136.711 99.8668 131.075 103.321L175 175L149.022 95.047Z" fill="#676767"/>
<path d="M200.978 95.047C194.692 93.0043 188.186 91.7102 181.596 91.1916L175 175L200.978 95.047Z" fill="#676767"/>
<path d="M243.012 125.586C239.127 120.238 234.624 115.368 229.598 111.075L175 175L243.012 125.586Z" fill="#676767"/>
<path d="M259.068 175C259.068 168.39 258.288 161.802 256.745 155.375L175 175H259.068Z" fill="#676767"/>
<path d="M243.012 224.414C246.898 219.066 250.139 213.278 252.668 207.171L175 175L243.012 224.414Z" fill="#676767"/>
<path d="M200.978 254.953C207.265 252.91 213.289 250.133 218.925 246.679L175 175L200.978 254.953Z" fill="#676767"/>
<path d="M149.022 254.953C155.308 256.996 161.814 258.29 168.404 258.808L175 175L149.022 254.953Z" fill="#676767"/>
<path d="M106.988 224.414C110.873 229.762 115.376 234.632 120.402 238.925L175 175L106.988 224.414Z" fill="#676767"/>
<path d="M90.9324 175C90.9324 181.61 91.7121 188.198 93.2552 194.625L175 175H90.9324Z" fill="#676767"/>
<path d="M106.988 125.586C103.102 130.934 99.8614 136.722 97.3317 142.829L175 175L106.988 125.586Z" fill="#676767"/>
<path d="M175 244.296C213.271 244.296 244.296 213.271 244.296 175C244.296 136.729 213.271 105.704 175 105.704C136.729 105.704 105.704 136.729 105.704 175C105.704 213.271 136.729 244.296 175 244.296Z" fill="black"/>
</svg>
